# xmcd CD database file
#
# Track frame offsets:
#	150
#	19613
#	40138
#	66156
#	82116
#	104233
#	119731
#	144226
#	162033
#	177838
#	198906
#	224373
#	240403
#	253171
#	265416
#	278861
#	302228
#
# Disc length: 4405 seconds
#
# Revision: 0
# Processed by: cddbd v1.4PL0 Copyright (c) Steve Scherf et al.
# Submitted via: CDex 1.51
#
DISCID=fc113311
DTITLE=Eddie Taylor with Vera Taylor and the west side allstar band - Big town playboy
DYEAR=1900
DGENRE=Blues, jazz, boogie
TTITLE0=Bad boy
TTITLE1=Take your hands down
TTITLE2=Moon is rising
TTITLE3=Pink champagne
TTITLE4=Keep on pushing
TTITLE5=I have the blues
TTITLE6=I found out
TTITLE7=Long home blues
TTITLE8=I do know right from wrong
TTITLE9=Look over yonders wall
TTITLE10=Three o'clock in the morning
TTITLE11=I got long to stay
TTITLE12=Look out
TTITLE13=All your loving
TTITLE14=Feel like jumping
TTITLE15=You make me see
TTITLE16=Big town playboy
EXTD=
EXTT0=
EXTT1=
EXTT2=
EXTT3=
EXTT4=
EXTT5=
EXTT6=
EXTT7=
EXTT8=
EXTT9=
EXTT10=
EXTT11=
EXTT12=
EXTT13=
EXTT14=
EXTT15=
EXTT16=
PLAYORDER=
